<svg xmlns="http://www.w3.org/2000/svg" viewBox="0 0 20 20" width="20" height="20">
  <defs>
    <linearGradient id="bg" x1="0%" y1="0%" x2="100%" y2="100%">
      <stop offset="0%" stop-color="#1a1a2e"/>
      <stop offset="100%" stop-color="#16213e"/>
    </linearGradient>
    <linearGradient id="spark" x1="0%" y1="0%" x2="100%" y2="100%">
      <stop offset="0%" stop-color="#60a5fa"/>
      <stop offset="100%" stop-color="#a78bfa"/>
    </linearGradient>
    <linearGradient id="bubble" x1="0%" y1="0%" x2="100%" y2="100%">
      <stop offset="0%" stop-color="#ffffff"/>
      <stop offset="100%" stop-color="#e0e7ff"/>
    </linearGradient>
  </defs>

  <!-- Background rounded square -->
  <rect width="20" height="20" rx="4" ry="4" fill="url(#bg)"/>

  <!-- Chat bubble -->
  <path d="M3.5 3.5 Q3.5 2.5 4.5 2.5 L13.5 2.5 Q14.5 2.5 14.5 3.5 L14.5 10 Q14.5 11 13.5 11 L7.5 11 L5.5 13 L5.5 11 L4.5 11 Q3.5 11 3.5 10 Z" fill="url(#bubble)"/>

  <!-- AI Spark / 4-pointed star inside bubble -->
  <path d="M9 5.5 L9.5 7 L11 7.5 L9.5 8 L9 9.5 L8.5 8 L7 7.5 L8.5 7 Z" fill="url(#spark)"/>

  <!-- Data bars at bottom right -->
  <rect x="12" y="14.5" width="1.5" height="3.5" rx="0.3" fill="#2dd4bf"/>
  <rect x="14" y="12.5" width="1.5" height="5.5" rx="0.3" fill="#22d3ee"/>
  <rect x="16" y="13.5" width="1.5" height="4.5" rx="0.3" fill="#38bdf8"/>
</svg>
